<svg width="54" height="59" fill="none" xmlns="http://www.w3.org/2000/svg"><g opacity=".7" fill="#fff"><path d="M27.38 39.687a3.707 3.707 0 003.702-3.703 3.707 3.707 0 00-3.703-3.703 3.707 3.707 0 00-3.703 3.703 3.707 3.707 0 003.703 3.703zm0-5.707c1.104 0 2.003.899 2.003 2.004a2.006 2.006 0 01-2.004 2.003 2.006 2.006 0 01-2.003-2.003c0-1.105.898-2.004 2.003-2.004zm16.426-21.635a6.144 6.144 0 006.137-6.136A6.144 6.144 0 0043.806.072a6.144 6.144 0 00-6.137 6.137 6.144 6.144 0 006.137 6.136zm0-10.574a4.443 4.443 0 014.438 4.438 4.442 4.442 0 01-4.438 4.437 4.442 4.442 0 01-4.437-4.437 4.442 4.442 0 014.437-4.438zm9.092 20.02a.85.85 0 00-.85.85v11.626a.55.55 0 01-.548.548h-2.073V19.818a.85.85 0 10-1.699 0v36.006a.55.55 0 01-.549.548h-1.974a.55.55 0 01-.549-.548V42.307a.85.85 0 10-1.7 0v13.517a.55.55 0 01-.548.548h-1.974a.55.55 0 01-.549-.548V19.818a.85.85 0 10-1.7 0v14.997h-2.072a.55.55 0 01-.549-.548V19.815c0-2.79 2.27-5.06 5.06-5.06h6.365c2.79 0 5.06 2.27 5.06 5.06a.85.85 0 101.7 0 6.768 6.768 0 00-6.76-6.76h-6.365a6.768 6.768 0 00-6.76 6.76v14.453a2.25 2.25 0 002.248 2.247h2.073v19.309a2.25 2.25 0 002.248 2.248h1.975c.528 0 1.014-.185 1.398-.491.384.306.87.49 1.399.49h1.974a2.25 2.25 0 002.248-2.247v-19.31H51.5a2.25 2.25 0 002.248-2.247V22.64a.85.85 0 00-.85-.85zM9.606 17.54a6.144 6.144 0 006.137-6.138 6.144 6.144 0 00-6.137-6.137 6.144 6.144 0 00-6.137 6.137 6.144 6.144 0 006.137 6.137zm0-10.575a4.443 4.443 0 014.438 4.437 4.442 4.442 0 01-4.438 4.438 4.442 4.442 0 01-4.437-4.438 4.443 4.443 0 014.437-4.437zM12.4 18.337H6.812a6.047 6.047 0 00-6.04 6.04v12.69a2.08 2.08 0 002.078 2.076h.026l-.588 5.353a.85.85 0 00.844.942h1.435v10.556a2.08 2.08 0 002.078 2.078h1.734c.46 0 .883-.152 1.227-.406.345.254.768.406 1.228.406h1.734a2.08 2.08 0 002.078-2.078v-4.691a.85.85 0 10-1.7 0v4.691c0 .209-.17.378-.378.378h-1.733a.379.379 0 01-.379-.378V46.92a.85.85 0 10-1.699 0v9.075c0 .209-.17.378-.378.378H6.645a.379.379 0 01-.379-.378V45.438h6.68v3.145a.85.85 0 101.7 0v-3.145h1.434a.85.85 0 00.844-.942l-.588-5.353h.026a2.08 2.08 0 002.078-2.077v-12.69c0-3.33-2.71-6.04-6.04-6.04zm4.34 18.729c0 .208-.17.378-.378.378h-.212l-1.556-14.156a.85.85 0 00-1.689.186l2.227 20.265H4.08l2.227-20.265a.85.85 0 00-1.69-.186L3.063 37.444H2.85a.378.378 0 01-.379-.378v-12.69a4.345 4.345 0 014.34-4.34H12.4a4.345 4.345 0 014.34 4.34v12.69z"/><path d="M33.818 36.86a2.262 2.262 0 00-1.588.718l-3.169 3.375h-3.28l-3.169-3.375a2.28 2.28 0 00-3.219-.101 2.28 2.28 0 00-.101 3.22l3.673 3.911v11.243c0 1.225.997 2.22 2.22 2.22h4.471c1.225 0 2.22-.995 2.22-2.22V51.19a.85.85 0 10-1.699 0v4.662a.521.521 0 01-.52.521H28.23v-7.086a.85.85 0 10-1.7 0v7.086h-1.345a.522.522 0 01-.521-.52v-11.58a.85.85 0 00-.23-.582l-3.904-4.157a.579.579 0 01.843-.791l3.42 3.642a.85.85 0 00.62.268h4.015a.85.85 0 00.62-.268l3.42-3.642a.579.579 0 01.842.79l-3.904 4.158a.85.85 0 00-.23.582v4.084a.85.85 0 101.7 0v-3.748l3.673-3.912a2.28 2.28 0 00-.101-3.22 2.266 2.266 0 00-1.63-.615z"/></g></svg>