<svg width="59" height="59" fill="none" xmlns="http://www.w3.org/2000/svg"><g clip-path="url(#clip0_10_763)"><path d="M29.524 39.788a3.707 3.707 0 003.703-3.703 3.707 3.707 0 00-3.703-3.704 3.707 3.707 0 00-3.703 3.704 3.707 3.707 0 003.703 3.703zm0-5.707c1.105 0 2.004.899 2.004 2.004a2.006 2.006 0 01-2.004 2.003 2.006 2.006 0 01-2.004-2.003c0-1.105.899-2.004 2.004-2.004z" fill="#C2002A"/><path d="M45.95 12.446a6.144 6.144 0 006.138-6.137A6.144 6.144 0 0045.95.172a6.144 6.144 0 00-6.137 6.137 6.144 6.144 0 006.137 6.137zm0-10.574a4.443 4.443 0 014.438 4.437 4.443 4.443 0 01-4.437 4.438 4.442 4.442 0 01-4.438-4.438 4.442 4.442 0 014.438-4.437zm9.093 20.02a.85.85 0 00-.85.85v11.625a.55.55 0 01-.548.549h-2.073V19.919a.85.85 0 10-1.7 0v36.005a.55.55 0 01-.548.549h-1.975a.55.55 0 01-.548-.549V42.408a.85.85 0 10-1.7 0v13.516a.55.55 0 01-.548.549h-1.975a.55.55 0 01-.548-.549V19.92a.85.85 0 10-1.7 0v14.997h-2.073a.55.55 0 01-.548-.548V19.916c0-2.79 2.27-5.06 5.06-5.06h6.364c2.79 0 5.06 2.27 5.06 5.06a.85.85 0 101.7 0 6.768 6.768 0 00-6.76-6.76H42.77a6.768 6.768 0 00-6.76 6.76v14.452a2.25 2.25 0 002.248 2.247h2.073v19.31a2.25 2.25 0 002.248 2.247h1.974a2.24 2.24 0 001.399-.49c.384.306.87.49 1.398.49h1.975a2.25 2.25 0 002.248-2.248V36.615h2.073a2.25 2.25 0 002.248-2.248V22.741a.85.85 0 00-.85-.85zM11.75 17.64a6.144 6.144 0 006.137-6.137 6.144 6.144 0 00-6.137-6.137 6.144 6.144 0 00-6.136 6.137 6.144 6.144 0 006.136 6.137zm0-10.575a4.443 4.443 0 014.438 4.438 4.443 4.443 0 01-4.438 4.437 4.442 4.442 0 01-4.437-4.437 4.443 4.443 0 014.437-4.438zm2.795 11.373H8.957a6.047 6.047 0 00-6.04 6.039v12.69a2.08 2.08 0 002.078 2.077h.026l-.588 5.353a.85.85 0 00.844.942h1.435v10.556a2.08 2.08 0 002.077 2.077h1.734c.46 0 .883-.151 1.228-.405a2.06 2.06 0 001.228.405h1.734a2.08 2.08 0 002.077-2.077v-4.692a.85.85 0 10-1.699 0v4.692c0 .209-.17.378-.378.378h-1.734a.379.379 0 01-.378-.378V47.02a.85.85 0 10-1.7 0v9.075c0 .209-.17.378-.378.378H8.79a.379.379 0 01-.378-.378V45.539h6.68v3.145a.85.85 0 101.699 0v-3.145h1.434a.849.849 0 00.845-.942l-.588-5.353h.025a2.08 2.08 0 002.078-2.078v-12.69c0-3.33-2.71-6.038-6.04-6.038zm4.34 18.728c0 .209-.17.378-.379.378h-.212L16.74 23.39a.85.85 0 00-1.69.186l2.227 20.265H6.225l2.227-20.265a.85.85 0 00-1.69-.186L5.208 37.544h-.212a.378.378 0 01-.378-.377v-12.69a4.345 4.345 0 014.34-4.34h5.588a4.345 4.345 0 014.34 4.34v12.69z" fill="#52595F"/><path d="M35.963 36.962a2.262 2.262 0 00-1.589.717l-3.168 3.374h-3.28l-3.17-3.374a2.28 2.28 0 00-3.218-.101 2.28 2.28 0 00-.102 3.219l3.674 3.912v11.243c0 1.224.996 2.22 2.22 2.22h4.47c1.225 0 2.22-.996 2.22-2.22v-4.663a.85.85 0 10-1.698 0v4.663a.522.522 0 01-.521.521h-1.426v-7.087a.85.85 0 10-1.699 0v7.087h-1.345a.522.522 0 01-.521-.521v-11.58a.85.85 0 00-.23-.58l-3.905-4.158a.579.579 0 01.843-.792l3.42 3.643a.85.85 0 00.62.268h4.015a.85.85 0 00.62-.268l3.42-3.643a.579.579 0 01.843.792l-3.904 4.157a.85.85 0 00-.23.582v4.084a.85.85 0 101.699 0V44.71l3.674-3.912a2.28 2.28 0 00-.102-3.22 2.266 2.266 0 00-1.63-.615z" fill="#C2002A"/></g><defs><clipPath id="clip0_10_763"><path fill="#fff" transform="translate(.405 .172)" d="M0 0h58v58H0z"/></clipPath></defs></svg>