<svg width="54" height="59" viewBox="0 0 54 59" fill="none" xmlns="http://www.w3.org/2000/svg">
<g opacity="0.7">
<path d="M27.3792 39.6868C29.4211 39.6868 31.0824 38.0256 31.0824 35.9839C31.0824 33.942 29.4212 32.2807 27.3792 32.2807C25.3374 32.2807 23.6763 33.9419 23.6763 35.9839C23.6764 38.0256 25.3375 39.6868 27.3792 39.6868ZM27.3792 33.98C28.4841 33.98 29.383 34.8789 29.383 35.9839C29.383 37.0887 28.4841 37.9875 27.3792 37.9875C26.2744 37.9875 25.3756 37.0886 25.3756 35.9839C25.3756 34.879 26.2744 33.98 27.3792 33.98Z" fill="white"/>
<path d="M43.8061 12.3455C47.19 12.3455 49.9431 9.59253 49.9431 6.20872C49.9432 2.82467 47.19 0.0717163 43.8061 0.0717163C40.4223 0.0717163 37.6694 2.82467 37.6694 6.2086C37.6694 9.59242 40.4224 12.3455 43.8061 12.3455ZM43.8061 1.77105C46.2531 1.77105 48.2438 3.76173 48.2438 6.2086C48.2438 8.65547 46.2531 10.646 43.8061 10.646C41.3593 10.646 39.3688 8.65547 39.3688 6.2086C39.3688 3.76173 41.3593 1.77105 43.8061 1.77105Z" fill="white"/>
<path d="M52.8985 21.791C52.4292 21.791 52.0489 22.1712 52.0489 22.6406V34.2666C52.0489 34.5692 51.8028 34.8153 51.5003 34.8153H49.4273V19.8178C49.4273 19.3485 49.047 18.9682 48.5777 18.9682C48.1083 18.9682 47.728 19.3485 47.728 19.8178V55.8236C47.728 56.1261 47.4819 56.3723 47.1794 56.3723H45.2048C44.9023 56.3723 44.6561 56.1261 44.6561 55.8236V42.3069C44.6561 41.8377 44.2758 41.4573 43.8065 41.4573C43.3372 41.4573 42.9569 41.8377 42.9569 42.3069V55.8236C42.9569 56.1261 42.7107 56.3723 42.4083 56.3723H40.4337C40.1312 56.3723 39.885 56.1261 39.885 55.8236V19.8178C39.885 19.3485 39.5047 18.9682 39.0354 18.9682C38.5661 18.9682 38.1858 19.3485 38.1858 19.8178V34.8155H36.1128C35.8104 34.8155 35.5643 34.5694 35.5642 34.2674V19.8152C35.5642 17.0248 37.8343 14.7546 40.6248 14.7546H46.9887C49.7791 14.7546 52.0493 17.0248 52.0493 19.8152C52.0493 20.2846 52.4295 20.6648 52.8989 20.6648C53.3682 20.6648 53.7485 20.2846 53.7485 19.8152C53.7485 16.0878 50.7159 13.0553 46.9885 13.0553H40.6242C36.8968 13.0553 33.8643 16.0878 33.8643 19.8152V34.2677C33.8648 35.5069 34.8733 36.5148 36.1122 36.5148H38.1853V55.8236C38.1853 57.0632 39.1937 58.0716 40.4332 58.0716H42.4078C42.9363 58.0716 43.4219 57.8871 43.8061 57.5806C44.1904 57.8871 44.676 58.0716 45.2046 58.0716H47.1792C48.4187 58.0716 49.4271 57.0633 49.4271 55.8236V36.5147H51.5002C52.7397 36.5147 53.7481 35.5061 53.7481 34.2666V22.6406C53.7483 22.1712 53.3679 21.791 52.8985 21.791Z" fill="white"/>
<path d="M9.6059 17.5391C12.9898 17.5391 15.7429 14.7861 15.7429 11.4023C15.7429 8.01837 12.9898 5.26541 9.6059 5.26541C6.22208 5.26541 3.46924 8.01837 3.46924 11.4023C3.46935 14.7861 6.22208 17.5391 9.6059 17.5391ZM9.6059 6.96474C12.0529 6.96474 14.0436 8.95543 14.0436 11.4023C14.0436 13.8492 12.0529 15.8397 9.6059 15.8397C7.15914 15.8397 5.16857 13.8492 5.16857 11.4023C5.16868 8.95543 7.15926 6.96474 9.6059 6.96474Z" fill="white"/>
<path d="M12.4003 18.3368H6.8123C3.48218 18.3368 0.772949 21.046 0.772949 24.3761V37.0665C0.773289 38.2115 1.70514 39.143 2.85041 39.143H2.87613L2.28797 44.496C2.26169 44.736 2.33861 44.976 2.49969 45.1557C2.66089 45.3356 2.89096 45.4384 3.13248 45.4384H4.56718V55.9942C4.56718 57.1397 5.49926 58.0717 6.64465 58.0717H8.37853C8.83811 58.0717 9.26189 57.9199 9.60638 57.6663C9.95087 57.9199 10.3745 58.0717 10.8343 58.0717H12.5682C13.7137 58.0717 14.6457 57.1397 14.6457 55.9942V51.3027C14.6457 50.8334 14.2654 50.4531 13.7961 50.4531C13.3268 50.4531 12.9465 50.8334 12.9465 51.3027V55.9942C12.9465 56.2028 12.7769 56.3724 12.5683 56.3724H10.8345C10.6259 56.3724 10.4562 56.2028 10.4562 55.9942V46.9192C10.4562 46.4499 10.0759 46.0696 9.6066 46.0696C9.13728 46.0696 8.757 46.4499 8.757 46.9192V55.9942C8.757 56.2028 8.58742 56.3724 8.37887 56.3724H6.64453C6.43598 56.3724 6.2664 56.2028 6.2664 55.9942V45.4384H12.9461V48.5831C12.9461 49.0523 13.3264 49.4327 13.7957 49.4327C14.2651 49.4327 14.6453 49.0523 14.6453 48.5831V45.4384H16.0799C16.3215 45.4384 16.5515 45.3356 16.7126 45.1557C16.8738 44.976 16.9507 44.736 16.9244 44.496L16.3363 39.143H16.362C17.5075 39.143 18.4395 38.2113 18.4395 37.0657V24.376C18.4395 21.046 15.7302 18.3368 12.4003 18.3368ZM16.7403 37.0655C16.7401 37.274 16.5706 37.4436 16.362 37.4436H16.1496L14.5941 23.2884C14.5428 22.8222 14.123 22.4868 13.6567 22.5367C13.1904 22.5879 12.8538 23.0076 12.905 23.474L15.1319 43.7389H14.3322H13.7959H5.41679H4.71898H4.08064L6.30752 23.474C6.35872 23.0076 6.02217 22.5879 5.55579 22.5367C5.0885 22.4867 4.66959 22.8222 4.61839 23.2884L3.06293 37.4436H2.85052C2.64209 37.4436 2.4725 37.2741 2.47239 37.066V24.376C2.47239 21.983 4.41935 20.036 6.81241 20.036H12.4003C14.7933 20.036 16.7403 21.983 16.7403 24.376V37.0655Z" fill="white"/>
<path d="M33.8184 36.8609C33.2104 36.88 32.6461 37.1348 32.2299 37.5781L29.0612 40.9526H25.7811L22.6123 37.578C21.7526 36.663 20.3087 36.6175 19.393 37.477C18.4779 38.3366 18.4323 39.7806 19.2917 40.6961L22.9655 44.6084V55.8513C22.9655 57.0756 23.9616 58.0716 25.1859 58.0716H29.6561C30.8805 58.0716 31.8763 57.0756 31.8763 55.8513V51.1887C31.8763 50.7194 31.496 50.3391 31.0267 50.3391C30.5574 50.3391 30.1771 50.7194 30.1771 51.1887V55.8513C30.1771 56.1385 29.9434 56.3722 29.6562 56.3722H28.2307V49.2856C28.2307 48.8163 27.8504 48.436 27.3811 48.436C26.9119 48.436 26.5315 48.8163 26.5315 49.2856V56.3722H25.186C24.8988 56.3722 24.665 56.1385 24.665 55.8513V44.2719C24.665 44.0559 24.5826 43.8479 24.4348 43.6903L20.5309 39.533C20.3127 39.3006 20.3243 38.934 20.5565 38.7158C20.7889 38.4977 21.1555 38.5093 21.3737 38.7415L24.794 42.384C24.9546 42.555 25.1787 42.652 25.4134 42.652H29.4289C29.6635 42.652 29.8877 42.5549 30.0483 42.384L33.4686 38.7415C33.6869 38.5091 34.0535 38.4978 34.2856 38.7157C34.518 38.934 34.5295 39.3006 34.3114 39.5329L30.4073 43.6902C30.2592 43.8478 30.177 44.0558 30.177 44.2718V48.3564C30.177 48.8256 30.5573 49.206 31.0266 49.206C31.4959 49.206 31.8762 48.8256 31.8762 48.3564V44.6083L35.5501 40.6961C36.4096 39.7807 36.364 38.3367 35.4487 37.4769C35.0056 37.0606 34.4271 36.843 33.8184 36.8609Z" fill="white"/>
</g>
</svg>
