<svg width="59" height="59" viewBox="0 0 59 59" fill="none" xmlns="http://www.w3.org/2000/svg">
<g clip-path="url(#clip0_10_763)">
<path d="M29.5237 39.7875C31.5656 39.7875 33.2269 38.1263 33.2269 36.0846C33.2269 34.0427 31.5657 32.3814 29.5237 32.3814C27.482 32.3814 25.8208 34.0426 25.8208 36.0846C25.8209 38.1263 27.4821 39.7875 29.5237 39.7875ZM29.5237 34.0807C30.6287 34.0807 31.5276 34.9796 31.5276 36.0846C31.5276 37.1894 30.6287 38.0882 29.5237 38.0882C28.4189 38.0882 27.5201 37.1893 27.5201 36.0846C27.5201 34.9797 28.4189 34.0807 29.5237 34.0807Z" fill="#C2002A"/>
<path d="M45.9506 12.4462C49.3346 12.4462 52.0876 9.69324 52.0876 6.30942C52.0877 2.92538 49.3346 0.172424 45.9506 0.172424C42.5668 0.172424 39.814 2.92538 39.814 6.30931C39.814 9.69313 42.5669 12.4462 45.9506 12.4462ZM45.9506 1.87175C48.3976 1.87175 50.3883 3.86244 50.3883 6.30931C50.3883 8.75618 48.3976 10.7468 45.9506 10.7468C43.5039 10.7468 41.5133 8.75618 41.5133 6.30931C41.5133 3.86244 43.5039 1.87175 45.9506 1.87175Z" fill="#52595F"/>
<path d="M55.0431 21.8917C54.5737 21.8917 54.1935 22.272 54.1935 22.7413V34.3673C54.1935 34.6699 53.9473 34.916 53.6448 34.916H51.5718V19.9185C51.5718 19.4492 51.1915 19.0689 50.7222 19.0689C50.2529 19.0689 49.8726 19.4492 49.8726 19.9185V55.9243C49.8726 56.2268 49.6264 56.473 49.324 56.473H47.3494C47.0468 56.473 46.8006 56.2268 46.8006 55.9243V42.4077C46.8006 41.9384 46.4203 41.5581 45.951 41.5581C45.4817 41.5581 45.1014 41.9384 45.1014 42.4077V55.9243C45.1014 56.2268 44.8552 56.473 44.5528 56.473H42.5782C42.2757 56.473 42.0296 56.2268 42.0296 55.9243V19.9185C42.0296 19.4492 41.6493 19.0689 41.18 19.0689C40.7106 19.0689 40.3303 19.4492 40.3303 19.9185V34.9162H38.2573C37.955 34.9162 37.7088 34.6701 37.7087 34.3681V19.9159C37.7087 17.1255 39.9788 14.8553 42.7693 14.8553H49.1332C51.9236 14.8553 54.1938 17.1255 54.1938 19.9159C54.1938 20.3853 54.5741 20.7655 55.0434 20.7655C55.5127 20.7655 55.893 20.3853 55.893 19.9159C55.893 16.1885 52.8605 13.156 49.1331 13.156H42.7687C39.0413 13.156 36.0088 16.1885 36.0088 19.9159V34.3684C36.0094 35.6076 37.0178 36.6155 38.2567 36.6155H40.3298V55.9243C40.3298 57.1639 41.3382 58.1723 42.5777 58.1723H44.5523C45.0808 58.1723 45.5664 57.9878 45.9507 57.6813C46.3349 57.9878 46.8206 58.1723 47.3491 58.1723H49.3237C50.5632 58.1723 51.5717 57.164 51.5717 55.9243V36.6154H53.6447C54.8842 36.6154 55.8927 35.6068 55.8927 34.3673V22.7413C55.8928 22.272 55.5124 21.8917 55.0431 21.8917Z" fill="#52595F"/>
<path d="M11.7504 17.6398C15.1344 17.6398 17.8874 14.8868 17.8874 11.503C17.8874 8.11905 15.1344 5.36609 11.7504 5.36609C8.36661 5.36609 5.61377 8.11905 5.61377 11.503C5.61388 14.8868 8.36661 17.6398 11.7504 17.6398ZM11.7504 7.06542C14.1974 7.06542 16.1881 9.05611 16.1881 11.503C16.1881 13.9498 14.1974 15.9404 11.7504 15.9404C9.30367 15.9404 7.3131 13.9498 7.3131 11.503C7.31321 9.05611 9.30379 7.06542 11.7504 7.06542Z" fill="#52595F"/>
<path d="M14.5449 18.4375H8.95683C5.62671 18.4375 2.91748 21.1467 2.91748 24.4769V37.1672C2.91782 38.3122 3.84967 39.2437 4.99494 39.2437H5.02066L4.4325 44.5967C4.40622 44.8367 4.48314 45.0767 4.64422 45.2564C4.80542 45.4363 5.0355 45.5391 5.27701 45.5391H6.71172V56.0949C6.71172 57.2404 7.64379 58.1724 8.78918 58.1724H10.5231C10.9826 58.1724 11.4064 58.0206 11.7509 57.767C12.0954 58.0206 12.5191 58.1724 12.9789 58.1724H14.7128C15.8583 58.1724 16.7902 57.2404 16.7902 56.0949V51.4034C16.7902 50.9341 16.4099 50.5538 15.9406 50.5538C15.4713 50.5538 15.091 50.9341 15.091 51.4034V56.0949C15.091 56.3035 14.9214 56.4731 14.7129 56.4731H12.979C12.7704 56.4731 12.6007 56.3035 12.6007 56.0949V47.0199C12.6007 46.5506 12.2205 46.1703 11.7511 46.1703C11.2818 46.1703 10.9015 46.5506 10.9015 47.0199V56.0949C10.9015 56.3035 10.7319 56.4731 10.5234 56.4731H8.78906C8.58051 56.4731 8.41093 56.3035 8.41093 56.0949V45.5391H15.0907V48.6838C15.0907 49.153 15.4709 49.5334 15.9403 49.5334C16.4096 49.5334 16.7899 49.153 16.7899 48.6838V45.5391H18.2245C18.466 45.5391 18.6961 45.4363 18.8571 45.2564C19.0183 45.0767 19.0953 44.8367 19.069 44.5967L18.4808 39.2437H18.5065C19.652 39.2437 20.584 38.312 20.584 37.1664V24.4767C20.584 21.1467 17.8748 18.4375 14.5449 18.4375ZM18.8848 37.1663C18.8847 37.3747 18.7151 37.5443 18.5065 37.5443H18.2941L16.7387 23.3891C16.6874 22.9229 16.2675 22.5876 15.8013 22.6374C15.3349 22.6886 14.9983 23.1083 15.0495 23.5747L17.2764 43.8396H16.4768H15.9404H7.56132H6.86351H6.22517L8.45205 23.5747C8.50326 23.1083 8.1667 22.6886 7.70032 22.6374C7.23304 22.5874 6.81412 22.9229 6.76292 23.3891L5.20746 37.5443H4.99506C4.78662 37.5443 4.61704 37.3748 4.61692 37.1667V24.4767C4.61692 22.0837 6.56388 20.1367 8.95695 20.1367H14.5449C16.9378 20.1367 18.8848 22.0837 18.8848 24.4767V37.1663Z" fill="#52595F"/>
<path d="M35.9629 36.9616C35.3549 36.9807 34.7906 37.2355 34.3744 37.6789L31.2057 41.0533H27.9256L24.7568 37.6788C23.8971 36.7637 22.4533 36.7183 21.5375 37.5777C20.6224 38.4373 20.5769 39.8813 21.4362 40.7968L25.11 44.7091V55.952C25.11 57.1763 26.1061 58.1723 27.3305 58.1723H31.8006C33.025 58.1723 34.0208 57.1763 34.0208 55.952V51.2895C34.0208 50.8202 33.6406 50.4399 33.1712 50.4399C32.7019 50.4399 32.3216 50.8202 32.3216 51.2895V55.952C32.3216 56.2393 32.0879 56.473 31.8008 56.473H30.3752V49.3864C30.3752 48.917 29.9949 48.5368 29.5256 48.5368C29.0564 48.5368 28.676 48.917 28.676 49.3864V56.473H27.3306C27.0433 56.473 26.8095 56.2393 26.8095 55.952V44.3727C26.8095 44.1566 26.7271 43.9486 26.5793 43.7911L22.6754 39.6338C22.4572 39.4013 22.4688 39.0347 22.701 38.8166C22.9335 38.5984 23.3 38.6101 23.5182 38.8423L26.9385 42.4847C27.0991 42.6558 27.3232 42.7527 27.5579 42.7527H31.5734C31.808 42.7527 32.0322 42.6557 32.1928 42.4847L35.6131 38.8423C35.8314 38.6098 36.198 38.5985 36.4301 38.8165C36.6626 39.0347 36.674 39.4013 36.4559 39.6337L32.5518 43.791C32.4038 43.9485 32.3215 44.1565 32.3215 44.3725V48.4571C32.3215 48.9263 32.7018 49.3067 33.1711 49.3067C33.6404 49.3067 34.0207 48.9263 34.0207 48.4571V44.709L37.6947 40.7968C38.5541 39.8814 38.5086 38.4374 37.5933 37.5776C37.1501 37.1613 36.5716 36.9437 35.9629 36.9616Z" fill="#C2002A"/>
</g>
<defs>
<clipPath id="clip0_10_763">
<rect width="58" height="58" fill="white" transform="translate(0.405273 0.172424)"/>
</clipPath>
</defs>
</svg>
